<svg width="31" height="30" viewBox="0 0 31 30" fill="none" xmlns="http://www.w3.org/2000/svg">
<rect x="0.291748" width="30" height="29.2274" rx="14.6137" fill="#F2F2F2"/>
<g clip-path="url(#clip0)">
<path d="M21.0895 17.6442C20.6087 19.003 19.1694 21.4088 17.6866 21.4351C16.703 21.4535 16.3868 20.8671 15.2624 20.8671C14.1387 20.8671 13.787 21.4172 12.8572 21.4529C11.2839 21.5119 8.85547 17.9804 8.85547 14.9005C8.85547 12.0715 10.879 10.6693 12.6468 10.6436C13.5949 10.6269 14.4905 11.2664 15.0685 11.2664C15.649 11.2664 16.7367 10.4976 17.8799 10.6103C18.3583 10.6299 19.7022 10.798 20.5647 12.0268C18.2763 13.4821 18.6329 16.5256 21.0895 17.6442ZM17.8952 7.15137C16.1665 7.21931 14.756 8.98629 14.9529 10.4476C16.5507 10.5685 18.0836 8.8236 17.8952 7.15137Z" fill="#090909"/>
</g>
<defs>
<clipPath id="clip0">
<rect x="7.63208" y="7.15137" width="14.6809" height="14.3028" fill="white"/>
</clipPath>
</defs>
</svg>
