<svg width="31" height="30" viewBox="0 0 31 30" fill="none" xmlns="http://www.w3.org/2000/svg">
<rect x="0.766357" width="30" height="29.2273" rx="14.6137" fill="#F2F2F2"/>
<g clip-path="url(#clip0)">
<path fill-rule="evenodd" clip-rule="evenodd" d="M20.2025 13.7844C17.785 12.3857 13.7976 12.2573 11.4895 12.9398C11.1188 13.0494 10.727 12.8455 10.6151 12.4844C10.5026 12.1233 10.7113 11.7415 11.0826 11.6319C13.7319 10.8483 18.1357 10.9999 20.9188 12.6092C21.2519 12.8022 21.3613 13.2212 21.1638 13.5457C20.9663 13.8702 20.5356 13.9774 20.2025 13.7844ZM20.1238 15.8565C19.9538 16.1244 19.5944 16.2084 19.3194 16.044C17.3038 14.8372 14.2307 14.4871 11.8457 15.1922C11.537 15.2835 11.2101 15.1136 11.1163 14.8128C11.0232 14.5114 11.1976 14.1942 11.5063 14.1022C14.2301 13.2973 17.6163 13.687 19.9313 15.0734C20.2063 15.2378 20.2925 15.5892 20.1238 15.8565ZM19.2057 17.8458C19.0713 18.0613 18.7832 18.1289 18.5632 17.9974C16.8019 16.9489 14.5851 16.712 11.9745 17.2929C11.7232 17.3489 11.4726 17.1955 11.4151 16.9507C11.3576 16.7053 11.5145 16.4611 11.7663 16.4051C14.6232 15.7688 17.0738 16.0428 19.0507 17.2198C19.2713 17.3507 19.3407 17.6314 19.2057 17.8458ZM15.7663 7.30688C11.6245 7.30688 8.26636 10.5785 8.26636 14.6137C8.26636 18.6495 11.6245 21.9205 15.7663 21.9205C19.9088 21.9205 23.2662 18.6495 23.2662 14.6137C23.2662 10.5785 19.9088 7.30688 15.7663 7.30688Z" fill="#090909"/>
</g>
<defs>
<clipPath id="clip0">
<rect x="8.26636" y="7.30688" width="14.9999" height="14.6137" fill="white"/>
</clipPath>
</defs>
</svg>
