<svg width="31" height="30" viewBox="0 0 31 30" fill="none" xmlns="http://www.w3.org/2000/svg">
<rect x="0.941284" width="30" height="29.2273" rx="14.6137" fill="#F2F2F2"/>
<g clip-path="url(#clip0)">
<path d="M15.9417 8.62394C17.9442 8.62394 18.1817 8.63125 18.9729 8.66656C21.0054 8.75668 21.9548 9.69622 22.0473 11.6618C22.0835 12.432 22.0904 12.6634 22.0904 14.6143C22.0904 16.5659 22.0829 16.7966 22.0473 17.5669C21.9542 19.5306 21.0073 20.472 18.9729 20.5621C18.1817 20.5974 17.9455 20.6047 15.9417 20.6047C13.9392 20.6047 13.7017 20.5974 12.9111 20.5621C10.8736 20.4714 9.92926 19.5276 9.83676 17.5663C9.80051 16.796 9.79301 16.5652 9.79301 14.6137C9.79301 12.6628 9.80114 12.432 9.83676 11.6611C9.92989 9.69622 10.8768 8.75607 12.9111 8.66595C13.7024 8.63125 13.9392 8.62394 15.9417 8.62394ZM15.9417 7.30688C13.9049 7.30688 13.6499 7.31541 12.8499 7.35073C10.1261 7.47251 8.6124 8.94483 8.4874 11.6009C8.45052 12.3809 8.44177 12.6293 8.44177 14.6137C8.44177 16.5981 8.45052 16.8472 8.48677 17.6266C8.61177 20.2802 10.123 21.7549 12.8492 21.8767C13.6499 21.912 13.9049 21.9205 15.9417 21.9205C17.9786 21.9205 18.2342 21.912 19.0342 21.8767C21.7554 21.7549 23.2729 20.2826 23.396 17.6266C23.4329 16.8472 23.4417 16.5981 23.4417 14.6137C23.4417 12.6293 23.4329 12.3809 23.3967 11.6015C23.2742 8.95031 21.7611 7.47312 19.0348 7.35133C18.2342 7.31541 17.9786 7.30688 15.9417 7.30688V7.30688ZM15.9417 10.8617C13.8149 10.8617 12.0905 12.5416 12.0905 14.6137C12.0905 16.6858 13.8149 18.3664 15.9417 18.3664C18.0686 18.3664 19.7929 16.6864 19.7929 14.6137C19.7929 12.5416 18.0686 10.8617 15.9417 10.8617ZM15.9417 17.0493C14.5611 17.0493 13.4417 15.9594 13.4417 14.6137C13.4417 13.2686 14.5611 12.1781 15.9417 12.1781C17.3223 12.1781 18.4417 13.2686 18.4417 14.6137C18.4417 15.9594 17.3223 17.0493 15.9417 17.0493ZM19.9454 9.83687C19.4479 9.83687 19.0448 10.2296 19.0448 10.7137C19.0448 11.1978 19.4479 11.5905 19.9454 11.5905C20.4423 11.5905 20.8448 11.1978 20.8448 10.7137C20.8448 10.2296 20.4423 9.83687 19.9454 9.83687Z" fill="#090909"/>
</g>
<defs>
<clipPath id="clip0">
<rect x="8.44177" y="7.30688" width="14.9999" height="14.6137" fill="white"/>
</clipPath>
</defs>
</svg>
