<svg width="31" height="30" viewBox="0 0 31 30" fill="none" xmlns="http://www.w3.org/2000/svg">
<rect x="0.824707" width="30" height="29.2274" rx="14.6137" fill="#F2F2F2"/>
<g clip-path="url(#clip0)">
<path d="M12.6995 18.2301H12.0745V13.3174C12.267 13.1768 12.4739 13.0562 12.6995 12.9728V18.2301ZM14.5745 18.2301H15.1995V12.6135C15.0564 12.7749 14.9226 12.9472 14.8114 13.1353L14.5745 13.0233V18.2301ZM13.3245 18.2301H13.9495V12.8425C13.632 12.7944 13.5601 12.812 13.3245 12.8364V18.2301ZM10.8245 18.2301H11.4495V13.9555C11.2545 14.2344 11.1026 14.5468 11.017 14.8902L10.8245 14.7794V18.2301ZM8.94947 15.0333C8.57071 15.3664 8.32446 15.8578 8.32446 16.4143C8.32446 16.9708 8.57071 17.4622 8.94947 17.7953V15.0333ZM20.7489 14.6247C20.6214 12.8973 19.2464 11.5321 17.5507 11.5321C16.912 11.5321 16.3232 11.7318 15.8245 12.0661V18.2301H21.5051C22.5095 18.2301 23.3245 17.3819 23.3245 16.3388C23.3245 14.9791 21.9695 14.042 20.7489 14.6247ZM10.1995 14.6083C10.0107 14.5937 9.87072 14.59 9.57447 14.6826V18.1466C9.85322 18.2337 9.97197 18.2307 10.1995 18.2307V14.6083Z" fill="#090909"/>
</g>
<defs>
<clipPath id="clip0">
<rect x="8.32446" y="7.30688" width="15.0001" height="14.6137" fill="white"/>
</clipPath>
</defs>
</svg>
