<svg width="31" height="30" viewBox="0 0 31 30" fill="none" xmlns="http://www.w3.org/2000/svg">
<rect x="0.883301" width="30" height="29.2274" rx="14.6137" fill="#F2F2F2"/>
<g clip-path="url(#clip0)">
<path d="M23.3834 10.0816C22.8315 10.3203 22.2384 10.4811 21.6158 10.5535C22.2515 10.1827 22.7396 9.59511 22.969 8.89486C22.3746 9.23829 21.7158 9.48794 21.0146 9.62251C20.454 9.03978 19.6533 8.67566 18.7683 8.67566C16.7815 8.67566 15.3215 10.4817 15.7702 12.3565C13.2133 12.2317 10.9458 11.0382 9.42768 9.22428C8.62143 10.5718 9.00955 12.3346 10.3796 13.2272C9.87581 13.2114 9.4008 13.0768 8.98643 12.8521C8.95268 14.241 9.97456 15.5404 11.4546 15.8297C11.0214 15.9442 10.5471 15.9709 10.0646 15.8808C10.4558 17.0718 11.5921 17.9383 12.9396 17.9627C11.6458 18.9509 10.0158 19.3924 8.3833 19.2048C9.74518 20.0555 11.3633 20.5517 13.1008 20.5517C18.8146 20.5517 22.0427 15.8504 21.8477 11.6337C22.449 11.2105 22.9709 10.6826 23.3834 10.0816Z" fill="#090909"/>
</g>
<defs>
<clipPath id="clip0">
<rect x="8.3833" y="7.30688" width="15.0001" height="14.6137" fill="white"/>
</clipPath>
</defs>
</svg>
